<?xml version="1.0" encoding="utf-8"?>
<!-- Generator: Adobe Illustrator 22.0.1, SVG Export Plug-In . SVG Version: 6.00 Build 0)  -->
<svg version="1.1" id="Layer_1" xmlns="http://www.w3.org/2000/svg" xmlns:xlink="http://www.w3.org/1999/xlink" x="0px" y="0px"
	 viewBox="0 0 1392 1478.8" style="enable-background:new 0 0 1392 1478.8;" xml:space="preserve">
<style type="text/css">
	.st0{fill:#F7F8F9;}
	.st1{fill:#E2A1DF;}
	.st2{fill:#DD96B3;}
	.st3{fill:none;}
	.st4{fill:#F1F3F5;}
	.st5{fill:#E4E8EB;}
	.st6{fill:#FFFFFF;}
	.st7{fill:#D7DDE2;}
	.st8{fill:#E9ECEF;}
	.st9{fill:#4F77FF;}
	.st10{fill:#2461D6;}
	.st11{fill:#75CFD6;}
	.st12{fill:#F7B2F4;}
	.st13{fill:#FCB9F6;}
	.st14{fill:#EAA4E6;}
	.st15{opacity:0.5;fill:#F9EECD;enable-background:new    ;}
	.st16{fill:#F9E492;}
	.st17{opacity:0.4;}
	.st18{clip-path:url(#SVGID_2_);}
	.st19{fill:#F3D575;}
	.st20{fill:#7ABCBC;}
	.st21{opacity:0.4;fill:#F7B2F4;enable-background:new    ;}
	.st22{fill:#F5ADE1;}
	.st23{fill:#F1A6C4;}
	.st24{fill:#F9EECD;}
	.st25{fill:#F6DC83;}
	.st26{opacity:0.4;fill:#75CFD6;enable-background:new    ;}
	.st27{fill:#72C1AC;}
</style>
<title>Asset 2</title>
<g id="Layer_2_1_">
	<g id="Layer_1-2">
		<path class="st0" d="M1391.9,1375.1c-1.4-39.2-16.9-72-34.2-118.2c-19.6-52.3-89.3-68.4-139.8-90.9
			c-71.1-31.7-146.8-56.5-207.5-105.2c-46.8-37.6-82.8-87.9-132.6-121.4C811.6,894.8,729,885,652.9,861
			c-75.7-23.9-146-62.6-220.7-89.5c-21-7.6-43.1-14.3-65.2-11.7c-44.1,5.2-75.2,44.5-101.1,80.6l-74.8,29.4
			c-59-3.2-129.9,2-168.1,47.2c-27.3,32.3-31.5,102.9-6.2,136.8c11.5,15.4,29.4,24.7,47.4,31.5c51.9,19.7,82.2,74.3,137.3,67.9
			c69.4-8.1,102.4,50.3,109.2,98.2c6.7,47.3,22.8,83.4,69.7,92.7c94,18.5,192.1-45.6,284.2-18.8c40.8,11.9,74.3,40.2,109.7,64.3
			c-12.4,2.3-24.7,5.6-36.8,9l-40.2,11c-4.3,1.2-9.8,5-7.4,8.7l0.3,1.3c23.2,1.6,46.5,2.2,69.7,2.8c20.9,0.5,43.1,0.7,62.9-5.1
			c1.9,0.8,3.8,1.6,5.7,2.3l-55,9.9c13.9,7.7,29.3,12.5,45.2,13.9c8.3,0.7,16.8,0.5,24.5-2.5c6.8-2.7,12.5-7.4,17.9-12.4
			c75.8,12.8,152.3-22,227.4-8c15.3,2.8,30.1,8.2,44.8,13.5l60.6,21.9c29.4,10.6,59.3,21.3,90.4,22.8s64.4-7.7,85-31.2
			C1386.5,1428,1392.9,1400.9,1391.9,1375.1z"/>
		<path class="st1" d="M756.9,1421c3.9,0,7.5,2,11.2,3.3c4.4,1.5,9.7,2,13.6-0.6c5-3.3,7.8-11.2,13.8-10.8c4.4,0.3,7.2,5.3,11.5,6.1
			c3.6,0.7,7-1.6,10.2-3.5s7.4-3.4,10.4-1.3c2.3,1.6,3.7,5.2,6.5,4.7c2-0.3,3.9-2.9,5.5-3.1c-0.2-0.1-0.3-0.2-0.5-0.3
			c-21-7.6-40.6-12.8-60.8-23.1l-29,17.8l-0.1,15.3c0,0.8,0,1.6,0.2,2.4h0.1C748.7,1424.1,753,1420.9,756.9,1421z"/>
		<path class="st2" d="M755.3,1430.5c29.7-2.8,55.2-4.5,83.6-11.4c1-0.3,1.6-1.3,1.4-2.3c-0.1-0.4-0.3-0.7-0.6-1
			c-1.6,0.3-3.5,2.8-5.5,3.1c-2.7,0.5-4.2-3.1-6.5-4.7c-3-2.2-7.2-0.6-10.4,1.3s-6.6,4.2-10.2,3.5c-4.3-0.8-7.1-5.8-11.5-6.1
			c-6-0.4-8.7,7.4-13.8,10.8c-3.9,2.6-9.1,2.2-13.6,0.6c-3.7-1.3-7.3-3.3-11.2-3.3s-8.3,3.2-7.5,7h-0.1c0.1,0.4,0.3,0.8,0.6,1.2
			C751,1430.7,753.3,1430.6,755.3,1430.5z"/>
		<path class="st3" d="M749.2,1410.2l-0.1,15.3c-0.1,1.3,0.1,2.6,0.8,3.7c1.2,1.6,3.5,1.5,5.4,1.3c29.7-2.8,55.2-4.5,83.6-11.4
			c1-0.2,1.6-1.2,1.4-2.2c-0.1-0.6-0.6-1.1-1.2-1.3c-21-7.6-40.6-12.8-60.8-23.1L749.2,1410.2z"/>
		<path class="st4" d="M774.1,1409.4c1,3.3-0.5,7.4,1.8,9.9c0.5,0.6,1.3,1,2.2,0.9c0.9-0.3,1.5-1,1.8-1.8c2.1-4.6,1.7-9.9-1-14.1
			c-0.2-0.3-0.4-0.6-0.7-0.8c-0.8-0.4-1.7,0.1-2.4,0.7c-1.6,1.4-2.7,3.3-3.2,5.3"/>
		<path class="st1" d="M672,1395.7c-0.1,2-1.1,9.5-2,16.1c-0.5,3.9,2.2,7.5,6.1,8c1,0.1,2.1,0.1,3-0.2c18.3-5.6,55-17.3,68.7-24.6
			c-2.3-2.6-6-3.3-9.5-3.9l-52.4-8.7"/>
		<path class="st4" d="M1315.4,412.6c0-12.2-7.8-23-19.4-26.7L120.8,1.4c-8.1-2.7-16.9-1.5-24.1,3.1l-7,3.8c6.4-3.4-0.7,5.1,7,7.7
			l1175.3,384.5c11.6,3.8,19.4,14.6,19.4,26.7v0.6l24-13.8L1315.4,412.6z"/>
		<path class="st5" d="M1315.4,412.6c0-12.2-7.8-23-19.4-26.7L120.8,1.4c-8.1-2.7-16.9-1.5-24.1,3.1l-7,3.8c0,0-0.7,5.1,7,7.7
			l1175.3,384.5c11.6,3.8,19.4,14.6,19.4,26.7v0.6l24-13.8L1315.4,412.6z"/>
		<path class="st4" d="M1293.5,1380.8l8-4.4c0.3-0.2,0.5-0.3,0.8-0.5l0,0l0,0c8.2-5.1,13.1-14.1,13.1-23.8V414.1l-24,13.8v938.9
			C1291.4,1376.9,1301.1,1375.9,1293.5,1380.8z"/>
		<path class="st4" d="M1293.5,1380.8l8-4.4c0.3-0.2,0.5-0.3,0.8-0.5l0,0l0,0c8.2-5.1,13.1-14.1,13.1-23.8V414.1l-24,13.8v938.9
			C1291.4,1376.9,1301.1,1375.9,1293.5,1380.8z"/>
		<path class="st6" d="M74.4,909.4c0,11.7,7.2,22.1,18.1,26.3l1175.2,449c14.5,5.5,30.8-1.7,36.3-16.2c1.2-3.2,1.9-6.6,1.9-10V487.6
			L74.4,84.7V909.4z"/>
		<path class="st7" d="M1293.5,1380.8l8-4.4c0.3-0.2,0.5-0.3,0.8-0.5l0,0l0,0c8.2-5.1,13.1-14.1,13.1-23.8V414.1l-9.8,4.9l1,940
			C1306.7,1369.2,1301.1,1375.9,1293.5,1380.8z"/>
		<path class="st4" d="M1286.6,392L111.3,7.6c-14.8-4.8-30.7,3.2-35.5,18c-0.9,2.8-1.4,5.8-1.4,8.8v50.2l1231.5,402.9v-68.6
			C1306,406.6,1298.1,395.8,1286.6,392z"/>
		<polygon class="st4" points="620,486.4 622.5,478.8 313.2,378.2 313.2,386.6 		"/>
		<polygon class="st4" points="957.8,558.9 957.8,550.5 313.2,340.8 313.2,349.2 		"/>
		<polygon class="st4" points="957.8,521.5 957.8,513.1 313.2,303.3 313.2,311.8 		"/>
		<polygon class="st4" points="957.8,484 957.8,475.6 313.2,265.9 313.2,274.3 		"/>
		<polygon class="st4" points="957.8,446.6 957.8,438.2 313.2,228.5 313.2,236.9 		"/>
		<path class="st4" d="M80.4,90.7l1219.5,399v868.6c0.1,12.2-9.8,22.1-22,22.2c-2.7,0-5.5-0.5-8-1.5L94.7,930
			c-8.6-3.3-14.2-11.5-14.2-20.7L80.4,90.7 M74.5,82.4v826.9c0,11.7,7.2,22.1,18.1,26.3l1175.2,449c14.5,5.5,30.8-1.7,36.3-16.2
			c1.2-3.2,1.9-6.6,1.9-10.1v-873C1305.9,485.3,74.4,82.4,74.5,82.4z"/>
		<path class="st0" d="M308.4,447.6v456.2c0,4.4,2.7,8.4,6.9,10l652,254c5.5,2.1,11.7-0.7,13.8-6.2c0.5-1.2,0.7-2.5,0.7-3.8V659.7
			c0-4.6-3-8.7-7.4-10.2l-652-212.1c-5.6-1.8-11.6,1.2-13.5,6.8C308.6,445.3,308.4,446.4,308.4,447.6z"/>
		<path class="st8" d="M566.3,637.3c-11.2-10.8-24.8-6.5-30.3,9.6s-1.1,37.8,10.1,48.6s24.8,6.5,30.3-9.6S577.4,648,566.3,637.3z"/>
		<path class="st8" d="M771.6,929.9c-10.5-37.2-27.4-91.3-32-129.6c-4.4-37-16.2-60.4-26.9-104.4c-3.1-12.9-8.6-27.3-22.2-27.5
			c-7.7-0.1-16,4.5-23.4,9.7c-44,30.4-73.6,79.3-104.7,124c-4.4,6.3-10.3,13.4-16.8,13.8c1-10.8,1.9-21.8-0.8-31.1
			s-10.1-16.9-20.3-16.5c-13.6,0.6-26.6,14.2-36.8,26.6c-17.3,21.1-33.8,42.8-49.4,65.2l-13.5,25.2c-4,5.4-2.9,13,2.5,17
			c0.9,0.7,1.9,1.2,2.9,1.6l347,132.8c4.9,1.9,2.5,2.6,24.8,10.2c9.9,3.4,4.9-24-0.8-32.8L771.6,929.9z"/>
		<path class="st0" d="M493.8,775.5c-0.4,7-0.4,15.6,6.3,19.8c6.9,4.3,13.9-1.1,18.3-6.3c1.3-1.6,2.6-3.7,4.2-4.9
			c3.4-2.7,4.6,0,6,2.8c1.3,2.6,2.8,5.3,5.6,6.5c3.3,1.5,6.2,0,8.9-1.9c4.9-3.4,9.7-7.1,14.5-10.6c1.5-1.1,0-3.7-1.5-2.6l-11.3,8.2
			c-1.5,1.1-2.9,2.3-4.5,3.2c-2.9,1.8-6.3,0.6-8.2-2.3s-3.2-9.9-7.9-8.6c-2,0.5-3.7,2.8-5,4.3c-2.8,3.1-5.1,6.8-8.7,9
			c-4.7,2.9-9.8,1.5-12.4-3.3c-2.2-4-1.7-9-1.5-13.4C496.9,773.5,493.9,773.6,493.8,775.5L493.8,775.5z"/>
		<path class="st0" d="M635,697.2c0.9,6.7-2.4,17.3,7.2,18.8c3.8,0.6,7.3-1.1,10.5-2.9c3.7-2.2,6.5-5.1,9.9-0.1
			c0.9,1.4,1.3,2.7,2.6,4c6.9,6.6,14.9,1.8,22.2-0.6c3.5-1.2,4.5,1.2,7,3.1c1.3,1,2.8,1.9,4.4,2.5c3.8,1.5,8,1.7,12,0.6
			c1.9-0.5,1.1-3.4-0.8-2.9c-5.1,1.4-10.6,0.2-14.6-3.2c-2-1.8-3.1-4.6-6.2-4.2c-3.7,0.5-7.1,3.6-10.8,4.5c-2.6,0.8-5.3,0.8-7.8,0
			c-3.5-1.2-4.2-3.5-5.8-6.5c-3.1-6-8.3-2.8-12.9-0.2c-5.6,3.2-13.6,5.2-14-3.9c-0.1-3.3,0.3-6.5-0.1-9.8
			C637.5,694.5,634.7,695.3,635,697.2L635,697.2z"/>
		<path class="st6" d="M985.7,313.9L327.3,99.4c-7.3-2.4-15.2,1.6-17.6,8.9c-0.5,1.4-0.7,2.9-0.7,4.3v20.1c0,6.5,4.2,12.4,10.4,14.4
			l666.7,217.2c3.7,1.2,7.6-0.8,8.8-4.5c0.2-0.7,0.3-1.4,0.3-2.2v-30.6C995.3,321.1,991.5,315.8,985.7,313.9z"/>
		<path class="st9" d="M706.5,1043c-9.2,34.8-11.5,71-13.2,107c-0.6,13-1.1,26.2-3.6,39c-2.2,11.7-6,23-9.3,34.4
			c-17.3,59.2-20.5,114-17.2,175.6c9-0.4,24.5-1,34.1-1.3c4.8-0.2,8.7-4,8.9-8.8c0.7-14.3,2-43.2,2.7-60
			c0.8-20.6,9.7-39.9,18.8-58.5c7.8-15.9,20.8-49.9,29.3-118.6c0.1-0.4,0.5-0.7,0.9-0.7c0.3,0.1,0.6,0.3,0.7,0.7
			c17.4,113.8-33.3,198-13.9,256.8c0.8,2.4,1.9,5,4.2,6.1c2,1,4.5,0.5,6.7-0.1c12.1-3,31.1-6.8,31.1-6.8s25.7-114.6,29.9-136.4
			c17.3-89.2,24.9-143.8,5.1-236.9c-32,11.6-56.5,23.7-104.5,4.1c-5.8-2.3-14.7,4.7-11.8,10.2"/>
		<path class="st9" d="M705,1042.7c-5.9,22.8-9.1,46.1-11,69.5c-2,24.2-1.2,48.9-5.1,72.8c-3.8,23.2-12.7,45.3-17.7,68.2
			c-4.7,21.8-7.8,43.9-9.4,66.1c-1.8,26.5-1.5,53.2-0.1,79.7c0,0.8,0.7,1.5,1.5,1.5c11-0.5,21.9-0.7,32.9-1.3
			c9.1-0.5,11.5-6.5,11.8-14.6c0.5-10.3,1-20.6,1.4-30.9c0.5-11.1,0.2-22.5,1.8-33.4c3-20.9,13.8-38.9,21.8-58.1
			c5.2-12.8,9.5-26,12.8-39.5c2.5-10,4.7-20.1,6.5-30.2c1.1-6,2.1-12,3-18.1c0.3-1.8,2.1-20.5,2.9-20.7c-1.8,0.3,0.1,7,0.3,8.9
			c0.3,3,0.7,5.9,0.9,8.9c0.6,6.9,1,13.9,1.2,20.9c0.3,12.1,0,24.3-0.9,36.4c-3.1,41.7-14.1,82.1-19.3,123.5
			c-2.2,17.4-3.1,35.6,1.7,52.8c1,3.4,1.9,7.9,5,10.2c4.4,3.2,10.8,0.2,15.4-0.8c8.2-1.9,16.4-3.6,24.6-5.2c0.5-0.1,0.9-0.5,1-1
			c7.4-33,14.7-65.9,21.9-98.9c11.3-51.7,22.6-104.1,24.6-157.2c1.5-39.7-3.3-79.2-11.5-118c-0.2-0.8-1.1-1.2-1.8-1
			c-20.4,7.4-40.6,15.5-62.8,14.3c-6.6-0.4-13.1-1.4-19.5-3c-7.3-1.8-14.2-5-21.4-7.1c-6.6-1.9-16.7,4.4-13.6,12
			c0.7,1.8,3.6,1,2.9-0.8c-1.3-3.2,1-6.1,3.8-7.6c3.1-1.8,5.7-0.9,8.8,0.4c6.1,2.4,12.3,4.4,18.7,6c10.1,2.6,20.5,3.7,30.9,3.2
			c18.5-1.1,35.7-8.1,52.9-14.4l-1.8-1c8.8,41.6,13.5,83.8,11,126.4c-2.3,38.1-9.2,75.9-16.8,113.2c-8.8,43.1-18.7,86-28.3,129
			c-0.3,1.3-0.5,2.6-0.9,3.9c0.5-1.8,1.6-0.8-0.2-0.8c-1.1,0.1-2.2,0.3-3.2,0.7c-4,0.8-7.9,1.6-11.9,2.5c-3.9,0.8-7.8,1.7-11.7,2.6
			c-3.3,0.8-8,2.8-10.8-1c-1.2-1.6-1.7-4.1-2.2-6c-1.8-6.4-2.9-13-3.3-19.6c-2-30.6,6.1-61.5,11.7-91.4c7.1-38.2,12-76.8,9.4-115.7
			c-0.4-5.3-0.9-10.7-1.5-16c-0.3-2.7,0-10.9-2.3-12.5c-1-0.8-2.4-0.6-3.1,0.4c-0.1,0.1-0.1,0.1-0.2,0.2c-0.9,1.2-0.7,3.6-0.9,5
			c-0.5,3.6-1,7.2-1.5,10.8c-2.6,18.8-6.2,37.5-10.8,56c-2.9,11.9-6.6,23.6-11,35c-5,12.8-11.8,24.8-16.7,37.6
			c-3.9,10.3-6.8,21-7.5,32c-0.5,8.4-0.7,16.8-1,25.1c-0.4,9.2-0.8,18.4-1.3,27.5c-0.2,3.5,0.3,7.9-0.8,11.2
			c-2.1,6.1-9.2,5.3-14.4,5.5c-8.9,0.3-17.8,0.7-26.7,1l1.5,1.5c-2.4-46.4-1.2-93,8.1-138.7c2.4-11.7,5.2-23.2,8.5-34.7
			c3.1-10.8,6.7-21.5,9.1-32.5c5-22.7,4.3-46.5,5.8-69.6c1.8-27,4.9-53.9,11.7-80.1c0.2-0.8-0.3-1.6-1.1-1.8
			c-0.8-0.2-1.6,0.3-1.8,1.1L705,1042.7z"/>
		<path class="st10" d="M735,1144.4c2.9,1.1,8,19.9,8.8,23.9c1.9,9.3,0.1,19.6-4,28.1c-3.3,6.8-8.2,12.7-12.1,19.2
			s-6.5,14.2-4.8,21.6c1.5,6.2,6,12.8,2.9,18.4c-2,3.5-6.3,4.9-9.4,7.5c-6.9,5.9-5.4,18.9,2.8,23c4.1,2.1,25.9-59,27.4-64.7
			c6.1-23.2,9.4-45.8,11.9-69.5C752,1151.9,735,1144.4,735,1144.4z"/>
		<path class="st10" d="M706.1,1075.2c-1.2,3.8,1.6,7.6,4.3,10.5c17,17.9,39.3,29.9,63.6,34.3c6.1,1.1,14.4,0.2,15.5-5.8
			c0.5-2.5-0.6-5.2,0.3-7.6c1.4-3.7,6.6-4.2,10.5-3.1s4.4,0,8.2-1c4.6-1.2,3.4-11.8,7.6-16c3.4-3.4,11.5,17.4,15.7,6.2
			c1.5-4-4.9-32-6.7-44.8c-16.3,12-42.8,34.4-63,35.1c-14.6,0.5-30.1,0.1-42.5-7.6c-2.5-1.6-5.1-3.5-8.1-3.7s-6.3,2.6-5.4,5.4"/>
		<path class="st11" d="M803.1,788.2c2.3-2,4.2-4.5,5.5-7.3c0.4-0.8,0.6-1.7,0.5-2.5c-0.3-0.8-0.9-1.4-1.5-1.9
			c-3.3-2.6-6.8-4.8-10.5-6.7"/>
		<path class="st11" d="M781.6,837.2c3.7-4.5,13.5-12.5,17.1-17c6.1-7.6,8.5-10.3,8.9-20.1c0.2-4.4-3-10.9-4.1-15.2l-5.2-20.8
			c-1.8-7.1-3.8-14.7-9.1-19.7c-9.2-8.8-32.1-10.6-44.5-8c-10.2,2-18.8,8.7-23.3,18.1c-5.6,11.9-5.3,21.8,0.9,37.6
			c2.6,6.6,5.8,8.3,10.9,13.2c1.5,1.5,3.3,2.8,4.6,4.5c0.9,1.5,1.7,3,2.2,4.7c0.7,1.6,0.7,10.7,1.2,12.3c1,3.7,2.3-0.2,4.1,3.2
			c0.6,1.3,1.6,2.4,2.9,3.1c0.9,0.4,2,0.6,3,0.6c3.7,0.1,7.3-0.9,10.3-2.9c1.6-1,3.1,3.3,5,4s2,1.7,4,2.6
			C773,838.5,781.6,837.2,781.6,837.2z"/>
		<polygon class="st4" points="1227.5,508.1 1227.5,510.2 1227.5,512.3 1273.9,527.5 1273.9,525.4 1273.9,523.3 		"/>
		<polygon class="st4" points="1227.5,530.3 1227.5,532.4 1273.9,547.6 1273.9,545.5 1273.9,543.4 1227.5,528.2 		"/>
		<polygon class="st4" points="1227.5,550.5 1227.5,552.6 1273.9,567.7 1273.9,565.6 1273.9,563.5 1227.5,548.3 		"/>
		<polygon class="st4" points="1227.5,508.1 1227.5,510.2 1227.5,512.3 1273.9,527.5 1273.9,525.4 1273.9,523.3 		"/>
		<polygon class="st4" points="1227.5,530.3 1227.5,532.4 1273.9,547.6 1273.9,545.5 1273.9,543.4 1227.5,528.2 		"/>
		<polygon class="st4" points="1227.5,550.5 1227.5,552.6 1273.9,567.7 1273.9,565.6 1273.9,563.5 1227.5,548.3 		"/>
		<polygon class="st4" points="1227.5,508.1 1227.5,510.2 1227.5,512.3 1273.9,527.5 1273.9,525.4 1273.9,523.3 		"/>
		<polygon class="st4" points="1227.5,530.3 1227.5,532.4 1273.9,547.6 1273.9,545.5 1273.9,543.4 1227.5,528.2 		"/>
		<polygon class="st4" points="1227.5,550.5 1227.5,552.6 1273.9,567.7 1273.9,565.6 1273.9,563.5 1227.5,548.3 		"/>
		<path class="st12" d="M246.6,934.2c-6.9,11.7-13.8,23.5-22.2,34.2c-5.5,7-11.7,13.5-17.9,19.9c-16.2,16.9-33.8,25-47.9,43.7
			c-7.5,9.9-14.5,20.2-20.9,30.8c-3.4,5.5-6.1,11.3-9.4,16.9s-9,9.2-13.9,13.4c-2.1,1.8-4.2,3.6-5.4,6c-2,3.9-1.3,8.6,0.4,12.7
			s4.3,7.6,6.1,11.5c3.2,6.8,16,27,19.6,30.8c1.1,1.2,3,1.3,4.2,0.2c0.7-0.7,1.1-1.6,1-2.6l0,0c-1.4-14.5-0.7-29.1,2.1-43.4
			c0.2-1.2,0.4-2.1,0.5-2.8c1.9-13,8.5-24.9,18.6-33.3c8.2-6.8,17.8-14.9,24.3-20.3c19.5-16.1,40.9-29.1,59.9-45.8
			c22.6-19.8,34.9-44.4,49.9-70.4C280.6,933.9,246.6,934.2,246.6,934.2z"/>
		<path class="st13" d="M307.6,1217.3c-0.9-2.4-1.3-6.7-1.4-11.5c-0.2-15.1,2.3-30.2,7.5-44.3c44.5-122.6,24.6-132.2,55.6-188.3
			l-52.5-29.9c-5.9,18.4-3.3,38.3-4.2,57.6c-1.8,40.8-18.8,79.4-23.3,119.9c-2.3,20.8-1.4,42.2-7.5,62.1c-3.2,6.1-7,11.9-11.3,17.3
			c-3.3,3.1-3.5,8.4-0.4,11.8c0.3,0.3,0.6,0.6,0.9,0.8c10.2,8.1,29.3,21.2,39.2,29.9c6.3,5.5,8.8,1.7,7.8,0.2
			C311.9,1234.4,310.5,1225.4,307.6,1217.3z"/>
		<path class="st14" d="M241,933.9c1.2,0.2,1.2,1.9,1.2,3.2c-0.1,4.3,3.2,8.2,7.2,10s8.4,2,12.8,2c1.4-0.1,2.7,0.2,4,0.7
			c1.1,0.7,1.9,1.6,2.6,2.7c3,4.7,6.3,10.8,11.9,10.6c3-0.1,5.5-2.1,7.5-4.2c2.5-2.5,4.8-5.2,6.9-8.2c0.7-0.8,1.1-1.9,1.1-3
			c-0.2-1.9-2.4-2.9-4.2-3.4c-16.1-4.7-32.5-8.1-49.2-10.1"/>
		<path class="st3" d="M338.6,958.6l-21.8-15.2c-0.9,2.9-1.6,5.8-2.2,8.8c6,2.3,12.1,4.1,18.3,5.4
			C334.9,957.9,336.8,958.2,338.6,958.6z"/>
		<path class="st14" d="M338.6,958.6c-1.9-0.3-3.7-0.6-5.6-1c-6.3-1.3-12.4-3.1-18.4-5.4c-1.1,6-1.6,12.1-1.8,18.2
			c2,4.6,6.3,8.6,11.4,8.7c3,0,6.6-1.1,8.7,1.1c0.8,1,1.3,2.2,1.5,3.4l2.9,11.9c0.6,2.6,1.7,5.7,4.3,6.4c3.1,0.8,5.7-2.5,7.3-5.3
			c1.8-3.2,3.7-6.5,5.5-9.7c0.9-1.5,2.1-3.2,3.8-3.1c0.3,0,0.5,0.1,0.8,0.2c1.2-2.9,2.4-5.7,3.6-8.5L338.6,958.6z"/>
		<path class="st15" d="M464.6,477l-38.1-15.8v-66.5l68.1,24.8l-4.6,38.5c-0.7,7-4.4,13.4-10.3,17.3l0,0
			C475.2,478.4,469.6,479,464.6,477z"/>
		<path class="st16" d="M453.4,463.7l-38.1-15.8v-76.4l68.1,24.8l-4.5,48.5c-0.7,7-4.4,13.4-10.3,17.3l0,0
			C464,465.2,458.4,465.7,453.4,463.7z"/>
		<path class="st13" d="M472.7,515.4c2.3-8.4,5.2-19.7-1.4-23.9c-3.8-2.4-6.1-8.6-7-12.1c-1.5-6.2-0.9-13.5-3.1-19.5
			c-0.8-1.8-1.5-3.6-2.1-5.4c-0.1-0.4-0.2-0.8-0.1-1.2c0.3-0.9,1.1-1.6,2.1-1.7c2.1-0.2,4.1,0.7,5.3,2.5c1.1,1.7,1.8,3.7,2,5.8
			c0,0.5,0.2,1,0.5,1.3c0.9,0.7,1.8-0.7,2.6-1.4c1.6-1.3,2.9-3,3.9-4.9c0.6-0.9,1.8-1.2,2.7-0.8c1.8,0.6,1.8,3.4,3.5,4.3
			s3.5-0.6,5.2-0.2c1.9,0.4,2.5,2.9,1.5,4.4c3.7,1,5.4,4.8,5.4,8.4c0.1,4.3,0.4,8.6,0.3,12.9c-0.6,23.4-3.4,46.6-6.1,69.8
			c-2.1,17.6-4.3,35.6-11.6,51.8c-5.6,12.5-14.1,23.5-24.7,32.1c-1,0.9-2.3,1.4-3.6,1.6c-5.2,0.6-7-5-7.2-9.5
			c-0.5-11.4,2.2-22.8,7.8-32.8C448.7,596.7,464.5,545.3,472.7,515.4z"/>
		<path class="st12" d="M281.5,754.8c-23.5,21.2-31,28.7-48.4,55.1c-5,7.6-21.2,33.8-23.4,42.6c-1.3,5.2-2.4,16.2-4.4,21.1
			s-11.3,7.6-16.6,7.8c-8.4,0.4-12.9-13.1-10.7-21.3s8.9-14.2,14.6-20.4c17.5-18.9,28.1-42.8,40.3-65.4
			c7.1-13.3,25.8-35.8,37.5-45.3c5.8-4.7,3.7,0.9,9.5,5.4c3.8,2.9,4.9,8.3,3.8,13s7.3-2.1,4.4,1.7L281.5,754.8z"/>
		<path class="st16" d="M326.6,749c6.5,11.3,1.1,26-7.7,35.5s-20.7,15.7-30.5,24.2c-31.9,27.7-38,75.2-63,109.2
			c-3.3,4.4-3.1,10.5,0.4,14.7c16.2,19.5,35.2,0.3,50.6,9.1c15.5,8.9,30,21.1,47.7,23.6c5,0.7,10.2,0.7,14.8,2.8
			c9.9,4.6,16.9,19,27.2,15.3c6.6-2.4,9.5-11.7,16.4-12.6c6.4-0.8,11.2,6.1,17.5,7.2c9.3,1.6,15.6-9,23.8-13.6
			c8.5-4.8,20-3.2,27.2-9.7c9.4-8.5,2.1-23-0.1-35.6c-7.3-42.3-18-83.9-32-124.5c-3.9-11.2-11.1-15.2-2.6-34.8
			c10.5-24.1,11.9-60.6,19.1-78.8c3.6-9.3,14.1-20.9,16.3-30.7c3.4-14.5-10.2-26.5-5.9-48.1c-7,0.2-20.3,17.3-23.6,23.5
			c-13.6,25.5-27,42.8-53.4,54.5c-6.1,2.7-12.5,5-17.6,9.4c-5.5,4.8-8.8,11.6-11.5,18.3c-6.4,15.8-12.7,23.9-14.9,40.9L326.6,749z"
			/>
		<path class="st16" d="M303.4,732.6c-7.3,8.1-14.8,16.1-22.3,24l-4.7-9.3c-1-2.1-2.4-4-4.2-5.4c-8.6-6.6-14.1-1.7-13.5-2.9
			c6.7-13.4,24.5-38.5,37.5-45.9c5-2.8,3.4,8.6,9.1,8.6s11.8,2.8,14.3,8L303.4,732.6z"/>
		<g class="st17">
			<path class="st16" d="M303.4,732.6c-7.3,8.1-14.8,16.1-22.3,24l-4.7-9.3c-1-2.1-2.4-4-4.2-5.4c-8.6-6.6-14.1-1.7-13.5-2.9
				c6.7-13.4,24.5-38.5,37.5-45.9c5-2.8,3.4,8.6,9.1,8.6s11.8,2.8,14.3,8L303.4,732.6z"/>
		</g>
		<g>
			<defs>
				<path id="SVGID_1_" d="M326.6,749c6.5,11.3,1.1,26-7.7,35.5s-20.7,15.7-30.5,24.2c-31.9,27.7-38,75.2-63,109.2
					c-3.3,4.4-3.1,10.5,0.4,14.7c16.2,19.5,35.2,0.3,50.6,9.1c15.5,8.9,30,21.1,47.7,23.6c5,0.7,10.2,0.7,14.8,2.8
					c9.9,4.6,16.9,19,27.2,15.3c6.6-2.4,9.5-11.7,16.4-12.6c6.4-0.8,11.2,6.1,17.5,7.2c9.3,1.6,15.6-9,23.8-13.6
					c8.5-4.8,20-3.2,27.2-9.7c9.4-8.5,2.1-23-0.1-35.6c-7.3-42.3-18-83.9-32-124.5c-3.9-11.2-11.1-15.2-2.6-34.8
					c10.5-24.1,11.9-60.6,19.1-78.8c3.6-9.3,14.1-20.9,16.3-30.7c3.4-14.5-10.2-26.5-5.9-48.1c-7,0.2-20.3,17.3-23.6,23.5
					c-13.6,25.5-27,42.8-53.4,54.5c-6.1,2.7-12.5,5-17.6,9.4c-5.5,4.8-8.8,11.6-11.5,18.3c-6.4,15.8-12.7,23.9-14.9,40.9L326.6,749z
					"/>
			</defs>
			<clipPath id="SVGID_2_">
				<use xlink:href="#SVGID_1_"  style="overflow:visible;"/>
			</clipPath>
			<g class="st18">
				<path class="st19" d="M451,919.1c-7.3-42.3-18-83.9-32-124.5c-3.9-11.2-11.1-15.2-2.6-34.8c10.5-24.1,11.9-60.6,19.1-78.8
					c3.6-9.3,14.1-20.9,16.3-30.7c1.6-6.7-0.5-12.9-2.8-19.8c-7.3-1-15.4,3.2-20,9.3c-5.9,7.9-7.5,18.2-9,27.9s-3.3,20-9.5,27.7
					c-4.2,5.2-10,8.8-15.1,13.2c-15.1,13.1-35.9,37.7-30,58.4c2.9,10,8,19.6,7.6,30c-0.8,19.8-21.4,35.2-20.6,55
					c0.9,21.6,27.3,37.3,24.4,58.8c-1.3,9.6-8.5,17.4-11.5,26.7c-5.2,15.9,0.9,28,12,35.8c1.4-1.3,3.2-2.2,5.1-2.5
					c6.4-0.8,11.2,6.1,17.5,7.2c5.3,0.9,9.6-2.1,13.8-5.7c1.6-10.1-0.7-15.4,4.9-24.9c1.2-2,2.6-4.1,4.8-4.7c3.9-1.1,7.2,3,8.8,6.8
					c1.5,3.6,2.5,7.4,3,11.3c5.7-1.2,11.4-2.2,15.6-6C460.6,946.2,453.2,931.6,451,919.1z"/>
			</g>
		</g>
		<path class="st4" d="M115.6,42.1c-5-4.8-11.1-2.9-13.6,4.3s-0.6,16.9,4.4,21.8s11.1,2.9,13.6-4.2S120.6,46.9,115.6,42.1z"/>
		<path class="st4" d="M150.9,52.8c-5-4.8-11.1-2.9-13.6,4.3s-0.6,16.9,4.4,21.8s11.1,2.9,13.6-4.2S155.9,57.6,150.9,52.8z"/>
		<path class="st4" d="M186.1,63.4c-5-4.8-11.1-2.9-13.6,4.3S172,84.6,177,89.5s11.1,2.9,13.6-4.2S191.1,68.3,186.1,63.4z"/>
		<path class="st13" d="M115.6,42.1c-5-4.8-11.1-2.9-13.6,4.3s-0.6,16.9,4.4,21.8s11.1,2.9,13.6-4.2S120.6,46.9,115.6,42.1z"/>
		<path class="st16" d="M150.9,52.8c-5-4.8-11.1-2.9-13.6,4.3s-0.6,16.9,4.4,21.8s11.1,2.9,13.6-4.2S155.9,57.6,150.9,52.8z"/>
		<path class="st11" d="M186.1,63.4c-5-4.8-11.1-2.9-13.6,4.3S172,84.6,177,89.5s11.1,2.9,13.6-4.2S191.1,68.3,186.1,63.4z"/>
		<path class="st4" d="M1284.4,865.7L1284.4,865.7c2.9,0,5.2,2.3,5.2,5.2v177.2c0,2.9-2.3,5.2-5.2,5.2l0,0c-2.9,0-5.2-2.3-5.2-5.2
			V870.9C1279.1,868,1281.5,865.7,1284.4,865.7z"/>
		<path class="st4" d="M1037,372.7c-2.7-0.1-5.3-1.3-7.2-3.2c-2.9-3-4.9-6.9-5.6-11c-0.9-4.3-0.7-8.7,0.7-12.8
			c1.4-4.1,4-6.9,7.2-7.9s6.8,0,9.7,2.9c1.5,1.5,2.7,3.1,3.6,5c1.4,3,2.1,6.2,2.1,9.5v2.9h-4v-3c0-2.7-0.5-5.3-1.7-7.7
			c-0.7-1.4-1.6-2.8-2.8-3.9c-1.9-1.8-3.9-2.5-5.7-1.9s-3.6,2.6-4.6,5.4c-1.1,3.5-1.3,7.1-0.5,10.7c0.6,3.4,2.1,6.5,4.5,9
			c1.9,1.8,3.9,2.5,5.7,1.9l1.2,3.8C1038.7,372.6,1037.8,372.7,1037,372.7z"/>
		<polygon class="st4" points="1039.4,356.1 1045.4,366.5 1051.4,356.1 		"/>
		<path class="st20" d="M771,804.5c-5.7,6.7-13.6-0.1-15.4-6.4c-1-3.7-1.5-8.3,2.2-10.6c2.8-1.7,6.3-1.2,9.4-0.8
			c1.9,0.2,1.9-2.8,0-3c-4.6-0.5-10.3-0.8-13.4,3.2c-2.8,3.6-2.1,9.1-0.7,13.2c2.8,8,13.2,14.5,20,6.6
			C774.4,805.1,772.2,803,771,804.5L771,804.5z"/>
		<path class="st21" d="M1010.8,762.9l-60.5-22.1l1.2-72.3l65.8,24.8l1.2,64.4c0,3.1-2.5,5.6-5.6,5.6
			C1012.1,763.3,1011.5,763.1,1010.8,762.9z"/>
		<path class="st12" d="M987.1,758.6l-38.8-14.8l1.2-74.4l67.7,19.7l-0.7,49.7c-0.2,12-10,21.5-22,21.3
			C992,760,989.5,759.5,987.1,758.6z"/>
		<path class="st22" d="M948.7,718.4c9.8-6,18.5-14.6,27.1-22c1.5-1.2,2.3-3.1,2-5c-0.6-3.5-4.3-4-7.3-3.6c-3.3,0.3-6.6,1.1-9.7,2.3
			c-0.9,0.3-1.8-0.1-2.1-0.9c-0.1-0.2-0.1-0.3-0.1-0.5c0-1.2-0.5-2.4-1.4-3.3c-3-3-7.9,2.1-7.9,2.1L948.7,718.4z"/>
		<path class="st23" d="M967.3,698.7c5-1.5,10.3-1.4,15.3,0.2c4.4,1.5,11.5,5.4,13,10.2c2.7,8.4-6.1,12-12.7,12.1
			c-4.5,0.1-9-0.3-13.5,0.8c-1.9,0.5-1.1,3.3,0.8,2.9c7-1.6,15,1,21.5-2.3c4.5-2.3,8.9-7.7,7.2-13.1c-4-12.5-21.3-17-32.5-13.7
			C964.7,696.3,965.5,699.2,967.3,698.7L967.3,698.7z"/>
		<path class="st9" d="M936.8,731.9c-16.3,5.2-32.2,11.8-47.4,19.6l-1.4,0.4c-2,1.1-1.9,1.7-2,3.2c0,1.5,1.1,2.8,2.6,3
			c0.8,0,1.6-0.2,2.4-0.5c16.9-6.3,33.5-13.7,49.5-22L936.8,731.9z"/>
		<path class="st9" d="M936.4,730.5c-11.8,3.8-23.3,8.3-34.6,13.3c-4.7,2.2-9.7,4.2-14.2,6.6c-2.3,1.2-3.5,2.9-3,5.5
			s2.8,3.8,5.4,3.5c5.6-0.8,11.8-4.4,17-6.6c11.6-4.8,23.1-10.2,34.2-16c0.7-0.4,0.9-1.4,0.5-2.1c-0.1-0.1-0.1-0.2-0.2-0.3l-3.8-3.6
			c-1.4-1.3-3.5,0.8-2.1,2.1l3.8,3.6l0.3-2.3c-8.3,4.3-16.7,8.3-25.3,12.1c-4.4,2-8.9,3.8-13.4,5.7c-2.3,0.9-4.7,1.8-7,2.7
			c-1,0.4-7.7,3-5.1-1.6c0,0,3.7-1.6,2.7-1.2c2.2-1.1,4.4-2.2,6.6-3.2c3.9-1.8,7.8-3.6,11.7-5.3c8.9-3.8,18-7.1,27.1-10.1
			C939,732.8,938.2,729.8,936.4,730.5z"/>
		<path class="st9" d="M966,725.6c1.4,3.9-8,5.8-10.7,5.7c-1.3,0.1-2.5-0.5-3.3-1.5c-0.4-0.9-0.3-2,0.3-2.9c0.6-0.8,1.4-1.5,2.4-1.9
			C957.7,723.5,964.4,721.1,966,725.6z"/>
		<path class="st9" d="M964.6,726c0.7,2.6-7.3,3.9-9.1,3.8c-1,0-3-0.2-1.6-2.4c0.5-0.5,1.1-0.9,1.8-1.2c0.9-0.5,1.8-0.8,2.8-1.1
			c2.2-0.7,5.1-1.3,6.2,1.2c0.8,1.8,3.3,0.2,2.6-1.5c-3.4-7.7-20.8-0.3-16.3,6c2.2,3.1,7.4,1.8,10.5,0.9s7-2.8,6-6.6
			c-0.2-0.8-1.1-1.3-1.9-1C964.8,724.4,964.4,725.2,964.6,726z"/>
		<path class="st9" d="M966.1,725.1l-0.8,1.1c-0.5,0.8-0.3,1.8,0.5,2.3c0.7,0.5,1.7,0.5,2.4-0.1c1.3-1.1,2.5-2.5,3.4-4
			c0.5-0.9,0.2-2-0.7-2.5c-0.1-0.1-0.3-0.1-0.4-0.2c-2.2-0.5-4.5-0.2-6.5,0.8c-0.9,0.5-1.1,1.6-0.7,2.5c0.5,0.8,1.6,1.1,2.5,0.7
			c1.2-0.5,2.5-0.7,3.7-0.4l-1.1-2.7c-0.7,1.2-1.7,2.4-2.8,3.3l2.8,2.2l0.8-1.1c0.5-0.9,0.2-2-0.7-2.5
			C967.7,724,966.6,724.3,966.1,725.1L966.1,725.1z"/>
		<path class="st9" d="M912.9,743.1l0.7,0.9c0.5,0.8,1.6,1.1,2.5,0.7c0.9-0.5,1.2-1.6,0.7-2.5l-0.7-0.9c-0.5-0.8-1.6-1.1-2.5-0.7
			C912.7,741.2,912.5,742.3,912.9,743.1L912.9,743.1z"/>
		<path class="st11" d="M960.5,727.9c0.2,0.1,0.5,0.2,0.7,0.3c6,2,7.1,9.3,3.8,14.2c9.6,10-12.7,18.1-17.2,27.5
			c-11.7,24.4-15.8,56.7-27.9,81c-2.4,4.9-11.8,17.9-15.8,21.5c-3.5,3.2-7.9,5.2-12.3,6.9c-33.9,13.5-74.4,23.7-110.2,12.7h-0.1
			c-3.1-1-4.8-4.2-3.9-7.3c0.2-0.8,0.6-1.5,1.1-2.1c17.2-20,29.5-34.2,32.7-32.4c19.2,10.9,37.1,1.6,56.5-3.3l0.2-0.1
			c7.3-1.8,13.6-6.7,17.3-13.3c11.7-21,38-69.6,43.2-90c1.9-7.2,5.9-13.8,11.3-18.9c2.8-2.7,6.1-4.9,9.7-6.4
			c3.7-1.5,10.4-3.6,13.4-1c0.7,0.6,1,1.4,1,2.3c-0.2,3.1-5,3-5.2,5.7C958.7,726.5,959.4,727.5,960.5,727.9z"/>
		<path class="st20" d="M686.1,911.7c-8.7,21.8-12.4,45.5-12.5,69c-0.1,20.4,3.1,42.3,14.7,59.6c2.3,3.4,6.1,9.7,9.9,11.4
			c4.7,2.2,7.4-4.6,9.6-8.9c5.2-10.2,7.1-21.8,9.3-33c3-15.4,6.9-30.7,7.6-46.4s-1.9-32-10.8-44.9L686.1,911.7z"/>
		<path class="st6" d="M694.6,889.3c-2.8,23.4-3.3,96.6-3.3,96.6s-1.8,77.2,5,97.3c0.9,2.6,8.1-3.4,20.5,2.1
			c1.5,0.7,42.5,27.5,57.5,16.3c13.8-10.3,23.1-31.7,40.3-30.8c9.4,0.5,9.7,12.9,16.5,12.9c4.1,0-0.5-20.4-2.7-42.1
			c-2.6-25.5-0.4-78.4-5-152.2c-0.2,4.1,21.1,6,21.1,6s-0.9-17.2,0-35.3c0.2-3-1.7,3-4.5,2c-5.3-1.8-47.8-22.3-70.8-29.8
			c-9.3-3.1-16.8,0.1-24.2-1.7c-10.2-2.5-10.9-9.2-18.1-3C712.1,840.4,696.8,871.6,694.6,889.3z"/>
		<path class="st4" d="M762.3,848.8c-8.5,10-1,29.3,3.7,39.3c7.5,16.2,19.1,27.7,24.4,45.5c1,3.4,2,7,4.5,9.5
			c3.7,3.7,10.2,3.8,14.6,1s7.1-7.9,8.2-13c2.1-10.3-0.9-21.3-0.7-31.8s1.2-22.6-5.6-31.6c-3.8-5-16.9-7.1-23.1-8.1
			s-13.3,2.9-14.1,9.1L762.3,848.8z"/>
		<path class="st6" d="M709.7,854.2c-13.3,14.7-23.1,32.1-28.7,51.1c-0.3,0.9-0.4,1.8-0.3,2.8c0.4,1,1,1.9,1.9,2.6l9.9,8.9"/>
		<path class="st16" d="M760.5,838.1c-5.9,0.2-11.8-0.7-17.4-2.7c-5.5-2-11.2-5.7-11.5-11.9c-0.1-1.4,0.5-2.8,1.7-3.7
			c2.7-1.8,5.6,0.7,7.9,2.7c4.4,3.9,13.9,6.2,19.5,7.2c4.2,0.8,8.4,1.9,12.5,3.3c0.6,0.2,1.1,0.4,1.6,0.7c0.3,0.3,2,3.2,1.6,3
			L760.5,838.1z"/>
		<path class="st16" d="M733,827.7c-43.8,31.5-33.8,81.5-40.9,112.8c-4.5,1.8-14-3.7-14.4-7.3s1.7-28.8,3-32.2
			c11.4-29.7-7-51.5,52.4-80.7L733,827.7z"/>
		<path class="st3" d="M680.6,900.9c-1.3,3.5-3.4,28.5-3,32.2c0.1,1.2,1.3,2.7,3.1,4c5.6-47.7,13.3-58,15.1-64.5
			c0.7-2.5,3.7-4.9,8-6.8c5.6-15.4,15.8-28.7,29.2-38.1l0.1-7.5C673.6,849.4,692,871.2,680.6,900.9z"/>
		<path class="st19" d="M695.8,872.6c-1.8,6.6-9.5,16.8-15.1,64.5c3.3,2.5,8.4,4.5,11.3,3.3c4.6-20.3,2-48.7,11.7-74.6
			C699.5,867.7,696.5,870.2,695.8,872.6z"/>
		<path class="st3" d="M772,870.4L772,870.4L772,870.4C772,870.5,772,870.5,772,870.4z"/>
		<path class="st16" d="M875.2,889.5c0.9-1,1.4-2.3,1.6-3.7c0.1-0.9,0.2-1.9,0.4-2.8c-0.1,0.5-0.2,0.9-0.3,1.4
			C876.3,886.1,875.8,887.8,875.2,889.5z"/>
		<path class="st16" d="M877.2,850.2c-0.1-1.4-0.5-2.8-1.2-4c-1.4-1.9-3.6-3-6-3c-2.3,0.1-4.6,0.5-6.8,1.3c-16.4,5-33,0.8-50.1-0.6
			c-9.5-0.8-16.8-0.8-25.5-4.9s-18.3-8.5-28.3-4.2c1.3,12.5,5.1,25.2,12.5,35.3c0.2-0.3,0.3-0.7,0.5-1l-0.3,1.3l0,0
			c3-5.9,10.2-8.9,16.8-8.2s12.5,4.9,16.4,10.2c2.9,3.9,5.6,8.9,10.4,9.6c5.8,0.8,10-5.1,15-8.2c6.8-4,15.3-2.9,20.9,2.6
			c1.4,1.5,2.7,3.3,4.7,4c3.4,1.2,6.7-1.5,9.4-3.8s6.4-4.7,9.5-3c2.4,1.4,2.8,4.3,2.5,7.3c0.1-0.5,0.2-1,0.3-1.4
			c0.4-1.7,0.7-3.4,0.7-5.2C878.8,866.2,878.3,858.2,877.2,850.2z"/>
		<path class="st24" d="M877.6,880.9c-0.1,0.7-0.3,1.4-0.4,2.1C877.3,882.3,877.5,881.6,877.6,880.9z"/>
		<path class="st19" d="M875.1,873.6c-3.1-1.8-6.9,0.6-9.5,3s-6,5-9.4,3.8c-1.9-0.7-3.2-2.5-4.7-4c-5.6-5.5-14.2-6.6-20.9-2.6
			c-5,3.1-9.2,9-15,8.2c-4.8-0.7-7.5-5.7-10.4-9.6c-4-5.3-9.8-9.5-16.4-10.2s-13.7,2.3-16.8,8.2c1.8,2.4,3.8,4.7,6,6.8
			c8,7.5,18.4,12.1,28.3,16.6c3.8,1.7,7.8,2.9,11.9,3.4c9.7,1.3,20.2,1.7,29.5-1c5-1.5,16.5-3.3,23.4-4.4c1.6-0.3,3.1-1.1,4.2-2.4
			c0.6-1.7,1.1-3.4,1.6-5.1c0.1-0.4,0.2-0.9,0.3-1.4c0.1-0.7,0.2-1.5,0.4-2.1C877.9,878,877.5,875,875.1,873.6z"/>
		<path class="st24" d="M772.3,869.1c-0.2,0.3-0.4,0.7-0.5,1l0.2,0.3L772.3,869.1z"/>
		<path class="st3" d="M818.2,897.3c-4.1-0.6-8.1-1.7-11.9-3.4c-9.9-4.5-20.3-9.1-28.3-16.6c-11.5-10.8-17.1-26.7-18.7-42.4
			c10-4.3,19.6,0.1,28.3,4.2s16,4.1,25.5,4.9c17,1.4,33.7,5.6,50.1,0.6c2.2-0.8,4.5-1.2,6.8-1.3c2.4,0,4.6,1.1,6,3
			c0.7,1.3,1.1,2.6,1.2,4c1.2,8,1.7,16,1.5,24.1c0,1.8-0.3,3.5-0.7,5.2c-0.5,2.1-0.9,4.2-1.1,6.3c-0.3,3.1-2.7,5.6-5.8,6.1
			c-6.8,1-18.3,2.9-23.4,4.4C838.4,898.9,827.9,898.5,818.2,897.3z"/>
		<path class="st13" d="M368.4,584.5c2.5,0.4,8,5.1,8.6,7.6s0.4,5,1.2,7.4c1.4,4.7,5.8,7.7,8.9,11.4c4.2,5.1,6.5,11.3,8,16.4
			c0.9,2.8,1.9,6.1,0.2,8.6c-1.9,2.9-4.5,4.6-7.2,6.8l-18.1,9.4l-8-61.5L368.4,584.5z"/>
		<path class="st9" d="M364.9,577.7c2.4,0.6,4.2,2.5,4.7,4.9c3.6,20.1,10.2,39.5,15.3,59.2c5.4,20.9,9.1,42.8,5.7,64.1
			s-14.9,42.2-33.9,52.6c-11.8,6.4-28.2,7.6-37.3-2.3c-2.2-2.4-3.8-5.2-4.9-8.3c-0.8-2.3-3.4-3.5-5.7-2.7c-0.2,0.1-0.4,0.1-0.5,0.2
			l0,0c-2.2,1.1-4.9,0.3-6-1.9c-0.1-0.2-0.2-0.4-0.3-0.7l-1.5-4.5c-0.8-2.3-3.3-3.6-5.7-2.8c-0.5,0.2-1,0.5-1.4,0.8l-0.1,0.1
			c-1.1,0.8-2.7,0.6-3.6-0.5c-0.2-0.3-0.4-0.7-0.5-1.1c-1.5-8.2-0.2-16.9,1.1-25.3l8.2-52.2c2.4-15,4.8-30.1,10.9-43.9
			s16.5-26.5,30.6-32C348.8,578,356.5,575.5,364.9,577.7z"/>
		<path class="st9" d="M364.5,579.1c4.6,1.6,4.4,8.2,5.3,12.3c1,4.3,2,8.7,3.2,13c2.2,8.3,4.6,16.6,7,24.9c4.7,16.7,9,33.7,10.2,51
			c1.9,29-7.2,63.5-35.4,77.5c-6.4,3.3-13.7,4.7-20.9,3.9c-9-1.2-13.9-6.4-17.9-14.2c-0.6-1.6-1.9-2.9-3.4-3.6
			c-0.8-0.3-1.6-0.4-2.4-0.4c-2.5,0.1-2,1-4.7-0.3s-2.3-2.4-3.4-5c-0.5-1.5-1.5-2.7-2.8-3.6c-1.5-0.8-3.2-1-4.8-0.5
			c-0.5,0.2-1.6,1-2,1c-2.6,0.1-2.2-3.8-2.4-5.7c-0.5-8.8,1.4-17.6,2.8-26.3c2.7-17.2,5.4-34.5,8.2-51.7s6.5-35.2,16.8-49.9
			C327.6,587.5,346.7,575.1,364.5,579.1c1.9,0.3,2.7-2.6,0.8-3c-14.6-3.2-31.4,4.3-41.9,14.3c-11.8,11.3-18.1,26.7-21.8,42.3
			c-4.6,19.3-6.9,39.3-10,58.9c-1.4,8.9-3.1,17.8-4.1,26.8c-0.5,4.4-2.7,16.9,2.4,19.4c2.4,1.2,3.5-0.6,5.8-0.8
			c3.6-0.3,3.7,3.3,4.8,6c0.6,1.8,1.9,3.2,3.6,3.9c4.4,1.6,5.6-3,9.7,3c2,3,3.2,6,6,8.5c2.2,2,4.7,3.5,7.5,4.5
			c6.1,2.3,12.9,2.2,19.2,0.7c30.7-7.1,45.6-41.8,46.8-70.3c0.9-21.8-4.4-43.3-10.2-64.2c-3-10.8-6.2-21.4-8.9-32.3
			c-1.2-5.1-1.6-11.2-3.5-16.1c-1-2.3-3-4.1-5.4-4.8C363.4,575.5,362.7,578.5,364.5,579.1z"/>
		<path class="st13" d="M130.7,1093.6c-1.4,2.8-3,6.6-0.6,9.4c1.7,2,4.6,2.6,6.6,0.8c1.4-1.3-0.7-3.4-2.1-2.1
			c-0.9,0.8-2.2-0.4-2.5-1.2c-0.7-1.7,0.5-3.9,1.3-5.4C134.1,1093.4,131.5,1091.9,130.7,1093.6L130.7,1093.6z"/>
		<path class="st14" d="M284.7,1194.5c-0.2,4.5,0,9,0.6,13.4c0.2,1.9,3.2,1.9,3,0c-0.6-4.5-0.7-9-0.6-13.4
			C287.8,1192.6,284.8,1192.6,284.7,1194.5z"/>
		<path class="st4" d="M730.8,844.2c5,2.6,9.5,6.1,13.1,10.4c1.2,1.5,3.4-0.7,2.1-2.1c-3.8-4.5-8.5-8.2-13.7-10.9
			C730.6,840.8,729.1,843.4,730.8,844.2L730.8,844.2z"/>
		<path class="st14" d="M315.3,1054.8l4.9,9c0.9,1.7,3.5,0.2,2.6-1.5l-4.9-9C316.9,1051.6,314.4,1053.1,315.3,1054.8L315.3,1054.8z"
			/>
		<polygon class="st9" points="917.8,746.7 895.4,755.8 888.6,758 886,755 889.4,751.5 914.4,739.4 		"/>
		<path class="st9" d="M888.5,758.6l-3.2-3.6l3.8-4l25.5-12.3l3.8,8.2l-22.9,9.3L888.5,758.6z M886.7,755l2.1,2.5l6.4-2.1l21.9-8.9
			l-3-6.4l-24.5,11.8L886.7,755z"/>
		<path class="st9" d="M332,1245.9c3.8,0.6-21.5-14.9-17.6-8.8c-0.3-0.2-7.6-3.5-5.2,0.2c-1.3-0.8-37.4-26.5-42.9-32.3
			c-0.5-0.5-1.2-0.5-1.7,0c-0.1,0.1-0.1,0.2-0.2,0.2c-4.9,8.3,25.2,27.3,28.4,29.4C304.9,1242.7,318.9,1251.5,332,1245.9z
			 M316.8,1246.1l0.1,0.1l-0.5-0.2L316.8,1246.1z"/>
		<path class="st9" d="M150.3,1164.2c-0.3-0.1-0.6-0.3-0.9-0.4c3.4-1.8-10.3-16-15.7-18.8c-1.6-0.8-2.9-2.2-3.6-3.9
			c-4.6-11.4-15.3-40.4-20-43.3c-6.4-3.9-4.4,9.9-4.4,10c0.4,9.4,18,35.6,23.4,42.8C135.2,1158.8,146.8,1162.7,150.3,1164.2z"/>
		<path class="st14" d="M178.4,867.9c2-1.4,4.8-5.7,7-5c2.4,0.8-0.4,3.5-1.2,5.2l-2.9,5.5c-0.4,0.7-0.1,1.7,0.6,2.1
			c0.3,0.2,0.7,0.2,1.1,0.1c4-0.8,6.1-3.8,8.7-6.7c0.7-0.9,1.5-1.7,2.5-2.3c1.7-0.8,0.9-0.4,0.4,1.1c-0.9,3.5-2.4,6.9-3.5,10.3
			c-0.5,1.5,1.5,2.3,2.5,1.5c1.8-1.7,3.4-3.7,4.6-5.9c0.8-1.3,1.7-3.5,3.2-4.1c0.3-0.6,0.6-0.8,1-0.6c0.5,1.8,0.4,3.8-0.2,5.6
			c-0.2,0.8,0.3,1.6,1.1,1.8c0.8,0.2,1.6-0.3,1.8-1c0.8-2.7,1.7-10-3-9.5s-7.4,9-10.5,11.7l2.5,1.5c1.3-3.9,4.1-8.8,4.3-12.8
			c0.1-1.4-0.3-2.8-1.8-3.2c-5.4-1.4-9.4,9-14.3,10l1.7,2.2c1.6-3,8.4-11.8,4.9-15.4c-3.9-4-9.3,3.6-11.9,5.5
			C175.4,866.4,176.9,869,178.4,867.9L178.4,867.9z"/>
		<path class="st14" d="M197.5,855l-2.1,7c-0.6,1.8,2.3,2.7,2.9,0.8l2.1-7C200.9,853.9,198,853.1,197.5,855L197.5,855z"/>
		<path class="st16" d="M127.7,212.4L127.7,212.4l-0.1,85.9l36.5,12.9v-40.5c-6.1-0.2-12.4-3.1-18.2-8.7
			C134.2,250.6,127.6,231.1,127.7,212.4z"/>
		<path class="st9" d="M175.9,176.6c-16.3-15.9-36.3-9.6-44.6,13.9c-2.4,7-3.6,14.4-3.6,21.8l36.3,9.5v48.8
			c10.9,0.4,21-7.5,26.4-22.7C198.7,224.4,192.2,192.5,175.9,176.6z"/>
		<path class="st9" d="M164.9,271.1H164h-0.5v-49l-36.3-9.4v-0.4c0-7.5,1.2-14.9,3.6-22c4.3-12.1,12-20.3,21.1-22.5
			c8.1-1.9,16.8,1.1,24.3,8.3l0,0c16.4,16,23,48.2,14.7,71.9C185.8,262.6,176.1,271.1,164.9,271.1z"/>
		<path class="st11" d="M127.7,212.4c-0.1,18.8,6.5,38.2,18.1,49.5c5.8,5.7,12.1,8.5,18.2,8.7v-48.8L127.7,212.4z"/>
		<path class="st0" d="M107.4,1233.4c-6-1-12.1-2.9-16.3-7.2c-0.8-0.7-1.4-1.6-1.7-2.7c-0.6-2.4,1.4-4.6,3.4-6
			c5.8-3.9,12.9-5.3,19.9-5.8c10.9-0.9,21.9-0.2,32.6,2.1c7.3,1.6,14.6,3.8,22,3.1c8-0.8,15.3-5,23.2-6.9c1.7-0.4,3.7-0.6,4.8,0.7
			c1.6,1.9-0.2,4.7-2.1,6.3c-5.5,4.5-12.1,7.1-19.2,7.7C173.9,1224.8,131.8,1237.6,107.4,1233.4z"/>
		<path class="st11" d="M890.6,754.2l19.7-8.2c1.8-0.7,1-3.6-0.8-2.9l-19.7,8.2C888,752,888.8,755,890.6,754.2z"/>
		<path class="st11" d="M679.8,985.9l6,4.9"/>
		<path class="st11" d="M678.8,987l6,4.9c1.5,1.2,3.6-0.9,2.1-2.1l-6-4.9C679.4,983.7,677.3,985.8,678.8,987z"/>
		<path class="st13" d="M216.4,991.2c5.8,0.8,10.3,5.2,16.1,5.9c1.9,0.2,1.9-2.8,0-3c-5.8-0.8-10.3-5.2-16.1-5.9
			C214.5,988,214.5,991,216.4,991.2z"/>
		<path class="st3" d="M706.5,1043c-9.2,34.8-11.5,71-13.2,107c-0.6,13-1.1,26.2-3.6,39c-2.2,11.7-6,23-9.3,34.4
			c-17.3,59.2-20.5,114-17.2,175.6c9-0.4,24.5-1,34.1-1.3c4.8-0.2,8.7-4,8.9-8.8c0.7-14.3,2-43.2,2.7-60
			c0.8-20.6,9.7-39.9,18.8-58.5c7.8-15.9,20.8-49.9,29.3-118.6c0.1-0.4,0.5-0.7,0.9-0.7c0.3,0.1,0.6,0.3,0.7,0.7
			c17.4,113.8-33.3,198-13.9,256.8c0.8,2.4,1.9,5,4.2,6.1c2,1,4.5,0.5,6.7-0.1c12.1-3,31.1-6.8,31.1-6.8s25.7-114.6,29.9-136.4
			c17.3-89.2,24.9-143.8,5.1-236.9c-32,11.6-56.5,23.7-104.5,4.1c-5.8-2.3-14.7,4.7-11.8,10.2"/>
		<path class="st21" d="M167,548l-53.1-18.2l-3.2-72.2l65.3,27.9V541c0,4-3.2,7.2-7.2,7.2C168.2,548.2,167.6,548.1,167,548z"/>
		<path class="st12" d="M135.3,457.6v11.5c0,3.1-2.5,5.6-5.6,5.6c-0.7,0-1.3-0.1-1.9-0.3l-20.1-7.3v56.9l56.7,19.8
			c2.5,0.9,5.2-0.4,6.1-2.9c0.1-0.4,0.2-0.8,0.3-1.2l5.1-67.3L135.3,457.6z"/>
		<polygon class="st24" points="135.3,457.6 135.3,400.7 67.2,375.9 67.2,452.3 107.7,467.1 107.7,447.5 		"/>
		<path class="st23" d="M135.3,469.1v-11.5l-27.6-10.1v19.6l20.1,7.3c2.9,1.1,6.1-0.4,7.2-3.3C135.2,470.4,135.3,469.7,135.3,469.1z
			"/>
		<path class="st16" d="M105.3,468.1l-38.1-15.8v-76.4l68.1,24.8l-4.5,48.5c-0.7,7-4.4,13.4-10.3,17.3l0,0
			C116,469.6,110.3,470.2,105.3,468.1z"/>
		<path class="st25" d="M67.7,443.8c-1.1-0.3-0.3-2,0.7-2.6L93.3,425c1.5-0.8,2.8-2,3.9-3.4c1-1.5,1-3.4,0-4.9
			c-1-1.2-2.8-1.4-4.4-1.4c-8.1,0.1-15.6,4-22.7,7.8c-1.6,0.5-2.6,2.1-2.4,3.7l-0.9,14.5"/>
		<path class="st19" d="M80.2,398.2c11.5,7.2,23.1,14.3,35.2,20.4c1.7,0.9,3.2-1.7,1.5-2.6c-12.1-6.2-23.7-13.3-35.2-20.4
			C80.1,394.6,78.6,397.2,80.2,398.2z"/>
		<path class="st19" d="M79.5,412.6c11.1,7.6,24,11.6,36.3,16.5c1.8,0.7,2.6-2.2,0.8-2.9c-12.2-4.8-24.7-8.8-35.6-16.2
			C79.4,408.9,77.9,411.5,79.5,412.6L79.5,412.6z"/>
		<path class="st19" d="M79.4,427.2c11.1,4.9,22.7,8.2,34.7,9.9c1.9,0.3,2.7-2.6,0.8-2.9c-11.7-1.6-23.2-4.9-34-9.6
			C79.2,423.9,77.7,426.4,79.4,427.2z"/>
		<path class="st19" d="M78.2,436c5.5,2.9,11.4,5,17.6,6.2c1.9,0.4,2.7-2.5,0.8-2.9c-5.9-1.1-11.6-3.1-16.9-5.9
			C78,432.5,76.5,435.1,78.2,436z"/>
		<path class="st19" d="M105.4,446h0.4c0.8,0,1.5-0.7,1.5-1.5s-0.7-1.5-1.5-1.5h-0.4c-0.8,0-1.5,0.7-1.5,1.5S104.6,446,105.4,446z"
			/>
		<path class="st23" d="M119,489.4c2.8,2,5.5,1.3,8.8,1.1c4.2-0.2,8.1,0.9,12.1,2.2c6.7,2.4,13.1,5.1,20.3,3.8
			c1.9-0.3,1.1-3.2-0.8-2.9c-7.1,1.3-13.6-2.1-20.1-4.3c-2.5-0.9-5.1-1.5-7.7-1.8c-3.4-0.3-8,1.3-11-0.8
			C118.9,485.7,117.4,488.3,119,489.4L119,489.4z"/>
		<path class="st23" d="M114.1,498.8c9.8,8.9,25.2,1.1,34.6,9.9c1.4,1.3,3.5-0.8,2.1-2.1c-9.7-9.2-25.1-1.3-34.6-9.9
			C114.8,495.4,112.7,497.5,114.1,498.8z"/>
		<path class="st23" d="M121.4,512.7c11.5,4.3,23.5,7.5,35.7,9.3c1.9,0.3,2.7-2.6,0.8-2.9c-12.2-1.8-24.2-5-35.7-9.3
			C120.4,509.1,119.6,512,121.4,512.7L121.4,512.7z"/>
		<path class="st19" d="M433.3,411.4c1.6-1,5.2-4.3,7.1-4.3c3.7-0.1,1.9,6.9,1.8,8.9l-1,20.1l1.9-1.5l-6.4-2.2
			c-1.6-0.6-2.7,2.1-1.1,2.7c5.4,2.3,11.7,1.7,17,4c1.8,0.8,3.3-1.8,1.5-2.6c-5.4-2.3-11.7-1.7-17-4l-1.2,2.7l6.4,2.2
			c0.8,0.2,1.6-0.3,1.9-1.1c0-0.1,0-0.2,0-0.3l0.9-16.3c0.2-4,1.4-9.2,0.4-13.1c-1.9-7.2-10.3,0-13.6,2.1c-0.7,0.4-1,1.3-0.5,2.1
			S432.6,411.9,433.3,411.4L433.3,411.4z"/>
		<path class="st19" d="M461.8,440.5C461.8,440.7,461.8,440.6,461.8,440.5C461.8,440.6,461.7,440.6,461.8,440.5L461.8,440.5
			C462,440.3,461.7,440.6,461.8,440.5C462,440.3,462.1,440.3,461.8,440.5l0.3-0.2c-0.2,0.1,0,0.1,0,0h0.1c-0.2,0-0.2,0-0.1,0
			s-0.3-0.1,0,0l-1-1c-0.1-0.3,0-0.6,0.2-0.9c-0.1,0.1-0.1,0.1,0.1-0.1l0.1,0c-0.1,0-0.1,0,0.2,0c-0.1,0-0.1,0,0,0s0.5,0.1,0.6,0.4
			c-0.4-0.7-1.4-0.9-2.1-0.5c-0.7,0.4-0.9,1.3-0.5,2c0.6,0.9,1.7,1.3,2.7,1c1.1-0.4,1.8-1.5,1.6-2.7c-0.1-0.5-0.5-0.9-1-1
			c-0.9-0.3-1.9-0.1-2.8,0.5c-0.9,0.6-1.4,1.6-1.5,2.6c0,0.8,0.7,1.5,1.5,1.5c0.8,0,1.5-0.7,1.5-1.5L461.8,440.5z"/>
		<path class="st19" d="M416.4,434.7l12.9-9.4c1.5-1.1,0-3.7-1.5-2.6l-12.9,9.4C413.4,433.3,414.9,435.9,416.4,434.7z"/>
		<path class="st26" d="M1191.9,1012.5l-53.1-18.2l-3.2-72.2l65.3,27.9v55.6c0,4-3.2,7.2-7.2,7.2
			C1193.1,1012.8,1192.5,1012.7,1191.9,1012.5z"/>
		<path class="st11" d="M1160.2,922.1v11.5c0,3.1-2.5,5.6-5.6,5.6c-0.7,0-1.3-0.1-1.9-0.3l-20.1-7.3v56.9l56.7,19.8
			c2.5,0.9,5.2-0.4,6.1-2.9c0.1-0.4,0.2-0.8,0.3-1.2l5.1-67.3L1160.2,922.1z"/>
		<polygon class="st24" points="1160.2,922.1 1160.2,865.3 1092.1,840.5 1092.1,916.9 1132.6,931.6 1132.6,912.1 		"/>
		<path class="st27" d="M1160.2,933.7v-11.5l-27.6-10.1v19.6l20.1,7.3c2.9,1.1,6.1-0.4,7.2-3.3
			C1160.1,935,1160.2,934.3,1160.2,933.7z"/>
		<path class="st16" d="M1130.2,932.7l-38.1-15.8v-76.4l68.1,24.8l-4.5,48.5c-0.7,7-4.4,13.4-10.3,17.3l0,0
			C1140.9,934.2,1135.2,934.7,1130.2,932.7z"/>
		<path class="st27" d="M1143.9,954c2.8,2,5.5,1.3,8.8,1.1c4.2-0.2,8.1,0.8,12.1,2.2c6.7,2.4,13.1,5.1,20.3,3.8
			c1.9-0.3,1.1-3.2-0.8-2.9c-7.1,1.3-13.6-2.1-20.2-4.3c-2.5-0.9-5.1-1.5-7.7-1.8c-3.4-0.3-8,1.3-11-0.8
			C1143.8,950.3,1142.3,952.9,1143.9,954L1143.9,954z"/>
		<path class="st27" d="M1139,963.4c9.8,8.9,25.2,1.1,34.6,9.9c1.4,1.3,3.5-0.8,2.1-2.1c-9.7-9.2-25-1.3-34.6-9.9
			C1139.7,960,1137.6,962.1,1139,963.4z"/>
		<path class="st27" d="M1146.3,977.2c11.5,4.3,23.5,7.5,35.7,9.3c1.9,0.3,2.7-2.6,0.8-2.9c-12.2-1.8-24.2-5-35.7-9.3
			C1145.3,973.7,1144.6,976.6,1146.3,977.2z"/>
		<path class="st25" d="M1092.7,908.4c-1.1-0.3-0.3-2,0.7-2.6l24.9-16.2c1.5-0.8,2.8-2,3.9-3.4c1-1.5,1-3.4,0-4.9
			c-1-1.2-2.8-1.4-4.3-1.4c-8.1,0.1-15.6,4-22.7,7.8c-1.6,0.5-2.6,2.1-2.4,3.7l-0.9,14.5"/>
		<path class="st19" d="M471.4,400.9l9.2,6.5c1.6,1.1,3.1-1.5,1.5-2.6l-9.2-6.5C471.4,397.2,469.9,399.8,471.4,400.9z"/>
		<path class="st10" d="M771.2,1255.9c4.7-2.2,8.6-4.9,13.3-7.1c1.8-0.8,0.2-3.4-1.5-2.6c-4.7,2.2-8.6,4.9-13.3,7.1
			C767.9,1254.1,769.4,1256.7,771.2,1255.9z"/>
		<path class="st10" d="M816.6,1271.4c11.6-60,18.9-104.3,16.4-155.3c-6.6,13.6-5.9,41.5-8.6,53c-2.8,12-11.6,21.8-15.5,33.5
			c-4.9,14.6-1.7,30.6-0.4,45.9c2.2,25.7-0.7,51.6-8.8,76.2c-6.1,18.7-15.2,36.3-21,55.1c-3.2,9.9-5,20.3-5.4,30.7
			c7.4-1.6,13.5-2.8,13.5-2.8S812.3,1293.2,816.6,1271.4z"/>
		<path class="st19" d="M1105.2,862.7c11.5,7.2,23.1,14.3,35.2,20.4c1.7,0.9,3.2-1.7,1.5-2.6c-12.1-6.2-23.7-13.3-35.2-20.4
			C1105,859.1,1103.5,861.7,1105.2,862.7L1105.2,862.7z"/>
		<path class="st19" d="M1104.4,877.2c11.1,7.6,23.9,11.6,36.3,16.5c1.8,0.7,2.6-2.2,0.8-2.9c-12.2-4.8-24.7-8.8-35.6-16.2
			C1104.3,873.5,1102.8,876.1,1104.4,877.2z"/>
		<path class="st19" d="M1104.4,891.8c11.1,4.9,22.7,8.2,34.7,9.9c1.9,0.3,2.7-2.6,0.8-2.9c-11.7-1.6-23.2-4.9-34-9.6
			C1104.1,888.4,1102.6,891,1104.4,891.8z"/>
		<path class="st19" d="M1103.2,900.6c5.5,2.9,11.4,5,17.6,6.2c1.9,0.4,2.7-2.5,0.8-2.9c-5.9-1.1-11.6-3.1-16.9-5.9
			C1103,897.1,1101.5,899.7,1103.2,900.6z"/>
		<path class="st19" d="M1130.4,910.6h0.4c0.8,0,1.5-0.7,1.5-1.5s-0.7-1.5-1.5-1.5h-0.4c-0.8,0-1.5,0.7-1.5,1.5
			S1129.6,910.6,1130.4,910.6z"/>
		<path class="st7" d="M1037,372.7c-2.7-0.1-5.3-1.3-7.2-3.2c-2.9-3-4.9-6.9-5.6-11c-0.9-4.3-0.7-8.7,0.7-12.8
			c1.4-4.1,4-6.9,7.2-7.9s6.8,0,9.7,2.9c1.5,1.5,2.7,3.1,3.6,5c1.4,3,2.1,6.2,2.1,9.5v2.9h-4v-3c0-2.7-0.5-5.3-1.7-7.7
			c-0.7-1.4-1.6-2.8-2.8-3.9c-1.9-1.8-3.9-2.5-5.7-1.9s-3.6,2.6-4.6,5.4c-1.1,3.5-1.3,7.1-0.5,10.7c0.6,3.4,2.1,6.5,4.5,9
			c1.9,1.8,3.9,2.5,5.7,1.9l1.2,3.8C1038.7,372.6,1037.8,372.7,1037,372.7z"/>
		<polygon class="st7" points="1039.4,356.1 1045.4,366.5 1051.4,356.1 		"/>
	</g>
</g>
<path class="st7" d="M1274.7,414c-0.1,2.4-1.9,4.3-4.3,4.4c-2.4,0.1-4.5-1.8-4.6-4.2c-0.1-2.4,1.8-4.5,4.2-4.6c0.1,0,0.3,0,0.4,0
	C1272.7,409.7,1274.6,411.6,1274.7,414z"/>
<path class="st7" d="M1274.7,433.7c0,2.4-1.9,4.3-4.3,4.4c-2.4,0.1-4.5-1.8-4.6-4.2c-0.1-2.4,1.8-4.5,4.2-4.6c0.1,0,0.3,0,0.4,0
	C1272.7,429.4,1274.6,431.3,1274.7,433.7z"/>
<path class="st7" d="M1274.7,453.5c0,2.4-1.9,4.3-4.3,4.4c-2.5,0-4.4-2-4.4-4.4s2-4.4,4.4-4.4
	C1272.7,449.2,1274.6,451.1,1274.7,453.5z"/>
</svg>
